HIERARCHY
ROOT hip
{
  OFFSET 0 0 0
  CHANNELS 6 Xposition Yposition Zposition Zrotation Yrotation Xrotation
  JOINT abdomen
  {
    OFFSET 0 20.6881 -0.73152
    CHANNELS 3 Zrotation Xrotation Yrotation
    JOINT chest
    {
      OFFSET 0 11.7043 -0.48768
      CHANNELS 3 Zrotation Xrotation Yrotation
      JOINT neck
      {
        OFFSET 0 22.1894 -2.19456
        CHANNELS 3 Zrotation Xrotation Yrotation
        JOINT head
        {
          OFFSET -0.24384 7.07133 1.2192
          CHANNELS 3 Zrotation Xrotation Yrotation
          JOINT leftEye
          {
            OFFSET 4.14528 8.04674 8.04672
            CHANNELS 3 Zrotation Xrotation Yrotation
            End Site
            {
              OFFSET 1 0 0
            }
          }
          JOINT rightEye
          {
            OFFSET -3.6576 8.04674 8.04672
            CHANNELS 3 Zrotation Xrotation Yrotation
            End Site
            {
              OFFSET 1 0 0
            }
          }
        }
      }
      JOINT rCollar
      {
        OFFSET -2.68224 19.2634 -4.8768
        CHANNELS 3 Zrotation Xrotation Yrotation
        JOINT rShldr
        {
          OFFSET -8.77824 -1.95073 1.46304
          CHANNELS 3 Zrotation Xrotation Yrotation
          JOINT rForeArm
          {
            OFFSET -28.1742 -1.7115 0.48768
            CHANNELS 3 Zrotation Xrotation Yrotation
            JOINT rHand
            {
              OFFSET -22.5879 0.773209 7.07136
              CHANNELS 3 Zrotation Xrotation Yrotation
              JOINT rThumb1
              {
                OFFSET -1.2192 -0.487915 3.41376
                CHANNELS 3 Zrotation Xrotation Yrotation
                JOINT rThumb2
                {
                  OFFSET -3.37035 -0.52449 3.41376
                  CHANNELS 3 Zrotation Xrotation Yrotation
                  End Site
                  {
                    OFFSET -1.78271 -1.18214 1.43049
                  }
                }
              }
              JOINT rIndex1
              {
                OFFSET -7.75947 0.938293 5.60832
                CHANNELS 3 Zrotation Xrotation Yrotation
                JOINT rIndex2
                {
                  OFFSET -2.54057 -0.884171 1.56538
                  CHANNELS 3 Zrotation Xrotation Yrotation
                  End Site
                  {
                    OFFSET -1.62519 -0.234802 1.16502
                  }
                }
              }
              JOINT rMid1
              {
                OFFSET -8.24714 1.18213 3.41376
                CHANNELS 3 Zrotation Xrotation Yrotation
                JOINT rMid2
                {
                  OFFSET -3.10165 -0.590103 1.0647
                  CHANNELS 3 Zrotation Xrotation Yrotation
                  End Site
                  {
                    OFFSET -2.48547 -0.328903 0.83742
                  }
                }
              }
              JOINT rRing1
              {
                OFFSET -8.82822 0.546677 1.51678
                CHANNELS 3 Zrotation Xrotation Yrotation
                JOINT rRing2
                {
                  OFFSET -2.60934 -0.819778 -0.0198488
                  CHANNELS 3 Zrotation Xrotation Yrotation
                  End Site
                  {
                    OFFSET -2.33842 -0.294052 0.168128
                  }
                }
              }
              JOINT rPinky1
              {
                OFFSET -8.27202 -0.0477905 -0.4584
                CHANNELS 3 Zrotation Xrotation Yrotation
                JOINT rPinky2
                {
                  OFFSET -1.82734 -0.647385 -0.700984
                  CHANNELS 3 Zrotation Xrotation Yrotation
                  End Site
                  {
                    OFFSET -1.69225 -0.51767 -0.607171
                  }
                }
              }
            }
          }
        }
      }
      JOINT lCollar
      {
        OFFSET 2.68224 19.2634 -4.8768
        CHANNELS 3 Zrotation Xrotation Yrotation
        JOINT lShldr
        {
          OFFSET 8.77824 -1.95073 1.46304
          CHANNELS 3 Zrotation Xrotation Yrotation
          JOINT lForeArm
          {
            OFFSET 28.1742 -1.7115 0.48768
            CHANNELS 3 Zrotation Xrotation Yrotation
            JOINT lHand
            {
              OFFSET 22.5879 0.773209 7.07136
              CHANNELS 3 Zrotation Xrotation Yrotation
              JOINT lThumb1
              {
                OFFSET 1.2192 -0.487915 3.41376
                CHANNELS 3 Zrotation Xrotation Yrotation
                JOINT lThumb2
                {
                  OFFSET 3.37035 -0.52449 3.41376
                  CHANNELS 3 Zrotation Xrotation Yrotation
                  End Site
                  {
                    OFFSET 1.78271 -1.18214 1.43049
                  }
                }
              }
              JOINT lIndex1
              {
                OFFSET 7.75947 0.938293 5.60832
                CHANNELS 3 Zrotation Xrotation Yrotation
                JOINT lIndex2
                {
                  OFFSET 2.54057 -0.884171 1.56538
                  CHANNELS 3 Zrotation Xrotation Yrotation
                  End Site
                  {
                    OFFSET 1.62519 -0.234802 1.16502
                  }
                }
              }
              JOINT lMid1
              {
                OFFSET 8.24714 1.18213 3.41376
                CHANNELS 3 Zrotation Xrotation Yrotation
                JOINT lMid2
                {
                  OFFSET 3.10165 -0.590103 1.0647
                  CHANNELS 3 Zrotation Xrotation Yrotation
                  End Site
                  {
                    OFFSET 2.48547 -0.328903 0.83742
                  }
                }
              }
              JOINT lRing1
              {
                OFFSET 8.82822 0.546677 1.51678
                CHANNELS 3 Zrotation Xrotation Yrotation
                JOINT lRing2
                {
                  OFFSET 2.60934 -0.819778 -0.0198488
                  CHANNELS 3 Zrotation Xrotation Yrotation
                  End Site
                  {
                    OFFSET 2.33842 -0.294052 0.168128
                  }
                }
              }
              JOINT lPinky1
              {
                OFFSET 8.27202 -0.0477905 -0.4584
                CHANNELS 3 Zrotation Xrotation Yrotation
                JOINT lPinky2
                {
                  OFFSET 1.82734 -0.647385 -0.700984
                  CHANNELS 3 Zrotation Xrotation Yrotation
                  End Site
                  {
                    OFFSET 1.69225 -0.51767 -0.607171
                  }
                }
              }
            }
          }
        }
      }
    }
  }
  JOINT rButtock
  {
    OFFSET -8.77824 4.35084 1.2192
    CHANNELS 3 Zrotation Xrotation Yrotation
    JOINT rThigh
    {
      OFFSET 0 -1.70687 -2.19456
      CHANNELS 3 Zrotation Xrotation Yrotation
      JOINT rShin
      {
        OFFSET 0 -36.8199 0.73152
        CHANNELS 3 Zrotation Xrotation Yrotation
        JOINT rFoot
        {
          OFFSET 0.73152 -45.1104 -5.12064
          CHANNELS 3 Zrotation Xrotation Yrotation
          End Site
          {
            OFFSET -1.1221 -3.69964 12.103
          }
        }
      }
    }
  }
  JOINT lButtock
  {
    OFFSET 8.77824 4.35084 1.2192
    CHANNELS 3 Zrotation Xrotation Yrotation
    JOINT lThigh
    {
      OFFSET 0 -1.70687 -2.19456
      CHANNELS 3 Zrotation Xrotation Yrotation
      JOINT lShin
      {
        OFFSET 0 -36.8199 0.73152
        CHANNELS 3 Zrotation Xrotation Yrotation
        JOINT lFoot
        {
          OFFSET -0.73152 -45.1104 -5.12064
          CHANNELS 3 Zrotation Xrotation Yrotation
          End Site
          {
            OFFSET 1.1221 -3.69964 12.103
          }
        }
      }
    }
  }
}
MOTION
Frames:	6
Frame Time:	0.00833333
0.643081 84.9792 -1.88423 0.0 0.0 0.0 -0.0369904 -0.000394254 -0.00106259 -0.0102115 -0.000642366 -0.00176897 -1.3113e-15 7.95139e-16 -5.04727e-18 -3.93842e-15 3.18055e-15 -1.3977e-17 -0.0 0.0 0.0 -0.0 0.0 0.0 -4.98307e-16 -3.88251e-19 1.98785e-16 -1.27588e-14 2.29845e-16 7.95139e-16 -2.36653e-13 6.97734e-14 -2.54444e-14 -2.71538e-12 -7.54388e-14 -1.27222e-14 -6.4071e-12 -1.76936e-14 -3.18055e-14 -1.10779e-11 -3.81667e-14 -5.80451e-14 -6.40285e-12 -1.63003e-14 -4.13472e-14 7.73091 5.47488 0.417314 -6.40907e-12 -1.80894e-14 -2.8625e-14 2.90554 0.965183 0.102902 -6.40493e-12 -1.77912e-14 -3.10104e-14 10.2786 0.731801 0.0259123 -6.41816e-12 -1.43125e-14 -1.59028e-14 2.22167 -0.733487 -0.20892 -7.93836e-16 -3.88251e-19 -1.98785e-16 -1.50793e-14 2.29845e-16 -9.93923e-16 -2.39734e-13 -7.23576e-14 3.18055e-14 -2.71644e-12 6.41826e-14 -3.18055e-14 -6.4079e-12 -2.46339e-14 -2.22639e-14 -1.10584e-11 -4.77083e-14 -4.21423e-14 -6.41279e-12 -2.62396e-14 -1.27222e-14 -7.73091 5.47488 -0.417314 -6.40529e-12 -2.59414e-14 -3.18055e-14 -2.90554 0.965183 -0.102902 -6.40982e-12 -2.49475e-14 -2.62396e-14 -10.2786 0.731801 -0.0259123 -6.39351e-12 -2.0276e-14 -4.13472e-14 -2.22167 -0.733487 0.20892 -2.03217e-16 0.0 -3.88251e-19 0.452246 -3.0226 -0.0389965 -0.00587875 -0.0777568 -0.0517926 -0.480046 3.09965 0.117405 2.03217e-16 0.0 3.88251e-19 -0.508688 -3.174 0.0425365 0.0054338 0.196476 0.0478054 0.480638 2.97682 -0.115
0.711239 83.9088 -2.22153 1.3982 -3.1986 1.5839 -0.1368 1.04047 1.71925 -0.133582 -0.33533 0.485364 -1.68775 3.6964 -1.31375 2.03075 -5.81137 -2.17458 -0.0 0.0 0.0 -0.0 0.0 0.0 -5.03582e-16 -8.23168e-15 1.09992e-14 10.8082 7.58054 9.38067 -25.2743 -23.0587 14.3424 0.147219 -8.52902 -1.15127 7.75894e-11 1.4179e-10 5.26572e-11 1.32867e-10 2.42233e-10 9.35175e-11 7.75907e-11 1.41793e-10 5.26457e-11 7.73091 5.47488 0.417314 7.75862e-11 1.41792e-10 5.26614e-11 2.90554 0.965183 0.102902 7.75909e-11 1.41793e-10 5.2661e-11 10.2786 0.731801 0.0259123 7.75814e-11 1.41797e-10 5.26742e-11 2.22167 -0.733487 -0.20892 -7.55174e-16 -8.23099e-15 1.06548e-14 -18.0728 17.6928 -6.65468 25.4137 -23.1862 -14.2993 -0.0261741 -3.59509 0.501688 -7.11299e-11 1.24668e-10 2.66433e-11 -1.2338e-10 2.1516e-10 4.51573e-11 -7.11342e-11 1.24666e-10 2.66574e-11 -7.73091 5.47488 -0.417314 -7.11276e-11 1.24667e-10 2.66363e-11 -2.90554 0.965183 -0.102902 -7.11325e-11 1.24669e-10 2.66394e-11 -10.2786 0.731801 -0.0259123 -7.11184e-11 1.24673e-10 2.66247e-11 -2.22167 -0.733487 0.20892 -2.03217e-16 0.0 -3.88251e-19 -0.527317 -5.53243 1.9444 0.00216566 5.74909 0.0533148 -0.742184 -0.350655 -3.64644 2.03217e-16 0.0 3.88251e-19 -0.50809 -5.17996 -0.773152 -0.00628941 5.66543 -0.0574046 0.746295 -1.03155 3.414
0.71363 83.9051 -2.23452 1.3976 -3.1767 1.643 -0.307433 2.13604 3.53663 -0.260663 -0.689535 0.999496 -3.28635 7.59992 -2.71948 3.68955 -11.9221 -4.54644 -0.0 0.0 0.0 -0.0 0.0 0.0 -9.88071e-16 -1.82397e-14 2.46431e-14 19.4342 14.8351 19.895 -36.2585 -42.0329 37.8426 -0.086348 -17.5402 -2.45722 1.67908e-10 2.95499e-10 1.05008e-10 2.87746e-10 5.05102e-10 1.86745e-10 1.67905e-10 2.95504e-10 1.04995e-10 7.73091 5.47488 0.417314 1.67903e-10 2.95504e-10 1.05014e-10 2.90554 0.965183 0.102902 1.67908e-10 2.95506e-10 1.05016e-10 10.2786 0.731801 0.0259123 1.67903e-10 2.95509e-10 1.05027e-10 2.22167 -0.733487 -0.20892 -1.19243e-15 -1.82382e-14 2.43542e-14 -31.8176 35.5409 -16.1513 36.4541 -42.3063 -37.8596 0.0150936 -7.37245 1.03555 -1.42463e-10 2.68854e-10 6.0124e-11 -2.47241e-10 4.64206e-10 1.0205e-10 -1.42467e-10 2.68851e-10 6.01433e-11 -7.73091 5.47488 -0.417314 -1.42461e-10 2.68853e-10 6.01198e-11 -2.90554 0.965183 -0.102902 -1.42466e-10 2.68856e-10 6.01202e-11 -10.2786 0.731801 -0.0259123 -1.42455e-10 2.6886e-10 6.01059e-11 -2.22167 -0.733487 0.20892 -2.03217e-16 0.0 -3.88251e-19 -1.3735 -8.17018 4.06453 -0.0129833 11.9081 0.167438 -1.51167 -3.96342 -7.64403 2.03217e-16 0.0 3.88251e-19 -0.571512 -7.29752 -1.64221 0.00352944 11.4469 -0.17142 1.56437 -5.23096 7.17304
0.722898 83.9027 -2.24395 1.4237 -3.1386 1.6858 -0.523885 3.11092 5.16667 -0.363249 -1.00442 1.45983 -4.54696 11.0657 -4.00767 4.71864 -17.3312 -6.80029 -0.0 0.0 0.0 -0.0 0.0 0.0 -5.14133e-16 -2.46943e-14 3.25999e-14 24.9137 20.2423 29.9095 -31.1784 -46.888 68.6237 -0.680538 -25.5434 -3.78614 2.45582e-10 4.25406e-10 1.58035e-10 4.20756e-10 7.26776e-10 2.80669e-10 2.45578e-10 4.25413e-10 1.5802e-10 7.73091 5.47488 0.417314 2.45577e-10 4.25413e-10 1.58041e-10 2.90554 0.965183 0.102902 2.45583e-10 4.25415e-10 1.58045e-10 10.2786 0.731801 0.0259123 2.4558e-10 4.25419e-10 1.58054e-10 2.22167 -0.733487 -0.20892 -6.77849e-16 -2.46922e-14 3.23619e-14 -36.6101 49.3903 -30.0383 31.1929 -47.1635 -68.8949 0.113217 -10.7819 1.5291 -2.00574e-10 3.74052e-10 7.99743e-11 -3.48024e-10 6.45575e-10 1.35556e-10 -2.00577e-10 3.7405e-10 7.99978e-11 -7.73091 5.47488 -0.417314 -2.00572e-10 3.74052e-10 7.99726e-11 -2.90554 0.965183 -0.102902 -2.00578e-10 3.74056e-10 7.99707e-11 -10.2786 0.731801 -0.0259123 -2.00568e-10 3.74058e-10 7.99569e-11 -2.22167 -0.733487 0.20892 -2.03217e-16 0.0 -3.88251e-19 -1.95814 -10.5053 5.98458 -0.0482108 17.4026 0.275328 -2.62497 -7.11521 -11.2614 2.03217e-16 0.0 3.88251e-19 -0.680246 -9.18518 -2.42605 0.0325432 16.6032 -0.278599 2.76358 -8.90181 10.5991
0.726004 83.9008 -2.25136 1.4234 -3.1026 1.7193 -0.723641 3.79465 6.32193 -0.416631 -1.22127 1.78547 -5.32948 13.4593 -4.93876 5.15615 -21.0834 -8.49795 -0.0 0.0 0.0 -0.0 0.0 0.0 2.35587e-15 -2.22654e-14 2.6339e-14 27.8258 23.4563 37.029 -27.6989 -41.775 87.1657 -1.35087 -31.068 -4.85719 2.91649e-10 4.95808e-10 2.1275e-10 4.99094e-10 8.45465e-10 3.76334e-10 2.91644e-10 4.95817e-10 2.12735e-10 7.73091 5.47488 0.417314 2.91643e-10 4.95816e-10 2.12757e-10 2.90554 0.965183 0.102902 2.91649e-10 4.95819e-10 2.12762e-10 10.2786 0.731801 0.0259123 2.91649e-10 4.95822e-10 2.1277e-10 2.22167 -0.733487 -0.20892 2.21632e-15 -2.22633e-14 2.61402e-14 -33.4822 56.6227 -45.071 27.6579 -41.9341 -87.4633 0.221125 -13.2747 1.9001 -2.25629e-10 3.81781e-10 6.57484e-11 -3.91112e-10 6.57751e-10 1.10593e-10 -2.25632e-10 3.81779e-10 6.57739e-11 -7.73091 5.47488 -0.417314 -2.25627e-10 3.81783e-10 6.57484e-11 -2.90554 0.965183 -0.102902 -2.25633e-10 3.81784e-10 6.57452e-11 -10.2786 0.731801 -0.0259123 -2.25625e-10 3.81787e-10 6.57325e-11 -2.22167 -0.733487 0.20892 -2.03217e-16 0.0 -3.88251e-19 -2.26355 -12.1259 7.34134 -0.0859867 21.2361 0.356048 -3.63971 -9.25455 -13.8266 2.03217e-16 0.0 3.88251e-19 -0.779471 -10.504 -2.97867 0.0649286 20.1967 -0.358196 3.8658 -11.3995 13.0526
0.689428 83.898 -2.24488 1.3666 -3.0944 1.7553 -0.84289 4.07474 6.80703 -0.401939 -1.29345 1.92218 -5.61383 14.3596 -5.32437 5.24701 -22.5853 -9.22162 -0.0 0.0 0.0 -0.0 0.0 0.0 9.22697e-15 -4.52978e-15 -4.7654e-15 29.312 25.3345 39.2938 -27.6557 -38.487 92.5048 -1.67388 -33.163 -5.30941 2.98018e-10 4.91388e-10 2.80333e-10 5.08538e-10 8.34006e-10 4.92618e-10 2.98018e-10 4.914e-10 2.80318e-10 7.73091 5.47488 0.417314 2.98013e-10 4.91396e-10 2.80338e-10 2.90554 0.965183 0.102902 2.98019e-10 4.91399e-10 2.80343e-10 10.2786 0.731801 0.0259123 2.98019e-10 4.91401e-10 2.8035e-10 2.22167 -0.733487 -0.20892 9.08589e-15 -4.52846e-15 -4.94011e-15 -30.9934 58.8066 -51.7779 27.6441 -38.5255 -92.5962 0.282798 -14.5213 2.08899 -2.01705e-10 2.24565e-10 -1.24749e-11 -3.48554e-10 3.83316e-10 -2.43652e-11 -2.01711e-10 2.24565e-10 -1.24509e-11 -7.73091 5.47488 -0.417314 -2.01704e-10 2.24571e-10 -1.24742e-11 -2.90554 0.965183 -0.102902 -2.01711e-10 2.24566e-10 -1.24771e-11 -10.2786 0.731801 -0.0259123 -2.01702e-10 2.24568e-10 -1.24878e-11 -2.22167 -0.733487 0.20892 -2.03217e-16 0.0 -3.88251e-19 -2.34679 -12.773 7.86872 -0.104031 22.7411 0.389636 -4.08846 -10.0816 -14.8338 2.03217e-16 0.0 3.88251e-19 -0.809077 -11.0287 -3.19697 0.0804182 21.5986 -0.391172 4.35857 -12.3653 14.0362
